<svg width="93" height="40" viewBox="0 0 93 40" fill="none" xmlns="http://www.w3.org/2000/svg">
<rect width="40" height="40" rx="8" fill="#D4DBFC"/>
<path d="M15.7328 15.813C16.1661 15.5296 16.4514 15.0476 16.4514 14.5002C16.4514 13.6277 15.7271 12.9207 14.833 12.9207C13.9389 12.9207 13.2144 13.6277 13.2144 14.5002C13.2144 15.0476 13.5002 15.5299 13.9332 15.813C12.8101 16.1368 12 17.028 12 17.8949C12 18.9795 13.2688 18.841 14.8333 18.841C16.3983 18.841 17.6666 18.9798 17.6666 17.8949C17.6668 17.0277 16.857 16.1365 15.7328 15.813ZM26.0663 15.813C26.4995 15.5296 26.7848 15.0476 26.7848 14.5002C26.7848 13.6277 26.0605 12.9207 25.1664 12.9207C24.2723 12.9207 23.5478 13.6279 23.5478 14.5002C23.5478 15.0476 23.8336 15.5299 24.2666 15.813C23.1436 16.1368 22.3334 17.028 22.3334 17.8949C22.3334 18.9795 23.6022 18.841 25.1667 18.841C26.7317 18.841 28 18.9798 28 17.8949C28 17.0277 27.1901 16.1365 26.0663 15.813ZM20.9932 23.4178C21.4713 23.1047 21.7864 22.5728 21.7864 21.9683C21.7864 21.0053 20.9867 20.2244 19.9996 20.2244C19.0128 20.2244 18.2128 21.0053 18.2128 21.9683C18.2128 22.5728 18.5278 23.105 19.0062 23.4178C17.7658 23.7752 16.8717 24.759 16.8717 25.7161C16.8717 26.9137 18.2721 26.7604 19.9999 26.7604C21.7276 26.7604 23.1277 26.9137 23.1277 25.7161C23.128 24.7587 22.2336 23.7749 20.9932 23.4178Z" stroke="#2940D3" stroke-width="1.3" stroke-miterlimit="10"/>
<path d="M22.7692 23.0745L25.5385 20.3053" stroke="#2940D3" stroke-width="1.3" stroke-miterlimit="10"/>
<path d="M14.4615 20.3053L17.2308 23.0745" stroke="#2940D3" stroke-width="1.3" stroke-miterlimit="10"/>
<path d="M17.8461 15.9976H21.8461" stroke="#2940D3" stroke-width="1.3" stroke-miterlimit="10"/>
<path d="M57.53 25.64C56.1767 25.64 55.122 25.262 54.366 24.506C53.61 23.7407 53.232 22.6487 53.232 21.23V15.7H55.052V21.16C55.052 23.0827 55.8827 24.044 57.544 24.044C59.196 24.044 60.022 23.0827 60.022 21.16V15.7H61.814V21.23C61.814 22.6487 61.436 23.7407 60.68 24.506C59.9333 25.262 58.8833 25.64 57.53 25.64ZM66.5049 25.598C65.8982 25.598 65.3055 25.5187 64.7269 25.36C64.1482 25.2013 63.6862 25.0007 63.3409 24.758L64.0129 23.428C64.3489 23.652 64.7502 23.834 65.2169 23.974C65.6929 24.1047 66.1595 24.17 66.6169 24.17C67.6622 24.17 68.1849 23.8947 68.1849 23.344C68.1849 23.0827 68.0495 22.9007 67.7789 22.798C67.5175 22.6953 67.0929 22.5973 66.5049 22.504C65.8889 22.4107 65.3849 22.3033 64.9929 22.182C64.6102 22.0607 64.2742 21.8507 63.9849 21.552C63.7049 21.244 63.5649 20.8193 63.5649 20.278C63.5649 19.5687 63.8589 19.004 64.4469 18.584C65.0442 18.1547 65.8469 17.94 66.8549 17.94C67.3682 17.94 67.8815 18.0007 68.3949 18.122C68.9082 18.234 69.3282 18.388 69.6549 18.584L68.9829 19.914C68.3482 19.5407 67.6342 19.354 66.8409 19.354C66.3275 19.354 65.9355 19.4333 65.6649 19.592C65.4035 19.7413 65.2729 19.942 65.2729 20.194C65.2729 20.474 65.4129 20.6747 65.6929 20.796C65.9822 20.908 66.4255 21.0153 67.0229 21.118C67.6202 21.2113 68.1102 21.3187 68.4929 21.44C68.8755 21.5613 69.2022 21.7667 69.4729 22.056C69.7529 22.3453 69.8929 22.756 69.8929 23.288C69.8929 23.988 69.5895 24.548 68.9829 24.968C68.3762 25.388 67.5502 25.598 66.5049 25.598ZM78.428 21.804C78.428 21.9253 78.4186 22.098 78.4 22.322H72.534C72.6366 22.8727 72.9026 23.3113 73.332 23.638C73.7706 23.9553 74.312 24.114 74.956 24.114C75.7773 24.114 76.454 23.8433 76.986 23.302L77.924 24.38C77.588 24.7813 77.1633 25.0847 76.65 25.29C76.1366 25.4953 75.558 25.598 74.914 25.598C74.0926 25.598 73.3693 25.4347 72.744 25.108C72.1186 24.7813 71.6333 24.3287 71.288 23.75C70.952 23.162 70.784 22.4993 70.784 21.762C70.784 21.034 70.9473 20.3807 71.274 19.802C71.61 19.214 72.072 18.7567 72.66 18.43C73.248 18.1033 73.9106 17.94 74.648 17.94C75.376 17.94 76.0246 18.1033 76.594 18.43C77.1726 18.7473 77.6206 19.2 77.938 19.788C78.2646 20.3667 78.428 21.0387 78.428 21.804ZM74.648 19.34C74.088 19.34 73.612 19.508 73.22 19.844C72.8373 20.1707 72.604 20.6093 72.52 21.16H76.762C76.6873 20.6187 76.4586 20.18 76.076 19.844C75.6933 19.508 75.2173 19.34 74.648 19.34ZM81.7749 19.116C82.2789 18.332 83.1656 17.94 84.4349 17.94V19.606C84.2856 19.578 84.1503 19.564 84.0289 19.564C83.3476 19.564 82.8156 19.7647 82.4329 20.166C82.0503 20.558 81.8589 21.1273 81.8589 21.874V25.5H80.1089V18.024H81.7749V19.116ZM88.2568 25.598C87.6502 25.598 87.0575 25.5187 86.4788 25.36C85.9002 25.2013 85.4382 25.0007 85.0928 24.758L85.7648 23.428C86.1008 23.652 86.5022 23.834 86.9688 23.974C87.4448 24.1047 87.9115 24.17 88.3688 24.17C89.4142 24.17 89.9368 23.8947 89.9368 23.344C89.9368 23.0827 89.8015 22.9007 89.5308 22.798C89.2695 22.6953 88.8448 22.5973 88.2568 22.504C87.6408 22.4107 87.1368 22.3033 86.7448 22.182C86.3622 22.0607 86.0262 21.8507 85.7368 21.552C85.4568 21.244 85.3168 20.8193 85.3168 20.278C85.3168 19.5687 85.6108 19.004 86.1988 18.584C86.7962 18.1547 87.5988 17.94 88.6068 17.94C89.1202 17.94 89.6335 18.0007 90.1468 18.122C90.6602 18.234 91.0802 18.388 91.4068 18.584L90.7348 19.914C90.1002 19.5407 89.3862 19.354 88.5928 19.354C88.0795 19.354 87.6875 19.4333 87.4168 19.592C87.1555 19.7413 87.0248 19.942 87.0248 20.194C87.0248 20.474 87.1648 20.6747 87.4448 20.796C87.7342 20.908 88.1775 21.0153 88.7748 21.118C89.3722 21.2113 89.8622 21.3187 90.2448 21.44C90.6275 21.5613 90.9542 21.7667 91.2248 22.056C91.5048 22.3453 91.6448 22.756 91.6448 23.288C91.6448 23.988 91.3415 24.548 90.7348 24.968C90.1282 25.388 89.3022 25.598 88.2568 25.598Z" fill="#3A3C40"/>
</svg>
